Coordinates
version=1
nRows=14
nColumns=46
inDegrees=yes

Units are S.I. units (second, meters, Newtons, ...)
Angles are in degrees.

endheader
time	pelvis_tilt	pelvis_list	pelvis_rotation	pelvis_tx	pelvis_ty	pelvis_tz	bb_angle	bb_tx	bb_ty	bb_tz	hip_flexion_r	hip_adduction_r	hip_rotation_r	knee_angle_r	knee_angle_r_beta	ankle_angle_r	subtalar_angle_r	mtp_angle_r	crank_angle_r	hip_flexion_l	hip_adduction_l	hip_rotation_l	knee_angle_l	knee_angle_l_beta	ankle_angle_l	subtalar_angle_l	mtp_angle_l	crank_angle_l	lumbar_extension	lumbar_bending	lumbar_rotation	arm_flex_r	arm_add_r	arm_rot_r	elbow_flex_r	pro_sup_r	wrist_flex_r	wrist_dev_r	arm_flex_l	arm_add_l	arm_rot_l	elbow_flex_l	pro_sup_l	wrist_flex_l	wrist_dev_l
      5.00500000	    -19.73663339	      7.74367126	      5.78998060	      0.37171207	      1.21387625	     -0.23281193	      0.00000000	      0.50000000	      0.00000000	      0.25000000	     23.61314617	    -15.16811957	    -13.63259822	     20.64251659	      0.36027988	    -15.96140584	      7.36632352	      0.00000000	      0.00000000	     73.30592707	     -7.10237852	     -4.47640387	    105.79410269	      1.84645542	      7.32809924	     15.85593552	      0.00000000	      0.00000000	    -56.80565474	     -5.77149960	     -3.70008641	     59.43210414	    -20.59051511	     29.05016531	     49.28735554	     45.63508506	      0.00000000	      0.00000000	     78.87154245	     -5.40406353	     69.51415771	     28.15742887	     47.34698356	      0.00000000	      0.00000000
      5.01000000	    -19.43389789	      7.75142996	      6.65733523	      0.37143898	      1.21588918	     -0.23267930	      0.00000000	      0.50000000	      0.00000000	      0.25000000	     22.61671817	    -15.47868640	    -14.63939434	     20.86109390	      0.36409477	    -16.50877287	      7.31164244	      0.00000000	      0.00000000	     73.59651475	     -6.07245283	     -4.20813994	    105.34233271	      1.83857055	      7.76924640	     15.62908622	      0.00000000	      0.00000000	    -57.18149126	     -5.53054221	     -3.91398106	     59.65270754	    -20.93307585	     29.26462866	     48.53388627	     45.56126125	      0.00000000	      0.00000000	     79.09228386	     -4.56139664	     69.59595593	     27.46655254	     47.23698771	      0.00000000	      0.00000000
      5.01500000	    -19.66591634	      7.56320916	      7.02614431	      0.37128725	      1.21686732	     -0.23286590	      0.00000000	      0.50000000	      0.00000000	      0.25000000	     22.58368166	    -15.47491574	    -14.80977657	     21.49510175	      0.37516030	    -16.90734796	      6.88842999	      0.00000000	      0.00000000	     74.37345348	     -5.52671600	     -3.96445711	    104.93930589	      1.83153640	      8.56396122	     15.68727104	      0.00000000	      0.00000000	    -56.86570797	     -5.53745899	     -3.80875072	     59.88763551	    -21.15224168	     30.01781698	     47.38798492	     45.51396879	      0.00000000	      0.00000000	     79.06434671	     -3.37049066	     69.55896081	     25.95524925	     46.96440150	      0.00000000	      0.00000000
      5.02000000	    -19.63576818	      7.48468923	      7.49500641	      0.37107680	      1.21883430	     -0.23285749	      0.00000000	      0.50000000	      0.00000000	      0.25000000	     22.34096081	    -15.61718190	    -15.15063975	     22.29947099	      0.38919919	    -17.31284632	      6.37893568	      0.00000000	      0.00000000	     74.71335720	     -4.87317396	     -3.82712442	    104.28222050	      1.82006810	      9.23443438	     15.66540033	      0.00000000	      0.00000000	    -56.97715665	     -5.46943846	     -3.90008486	     60.00641276	    -21.32591982	     29.97399193	     47.12692809	     45.47031251	      0.00000000	      0.00000000	     79.20672473	     -2.98442628	     69.52807513	     25.97313498	     46.95135420	      0.00000000	      0.00000000
      5.02500000	    -19.55321021	      7.44638489	      7.94781876	      0.37084459	      1.22115920	     -0.23278771	      0.00000000	      0.50000000	      0.00000000	      0.25000000	     22.14340166	    -15.79210273	    -15.38620564	     23.30986778	      0.40683394	    -17.47270392	      5.66741987	      0.00000000	      0.00000000	     74.85790055	     -4.19169400	     -3.72226853	    103.45403378	      1.80561351	      9.79327770	     15.52607934	      0.00000000	      0.00000000	    -57.17945460	     -5.42521550	     -3.97507217	     60.12938394	    -21.44107970	     29.96021389	     46.71415272	     45.40519351	      0.00000000	      0.00000000	     79.34119446	     -2.47828185	     69.46566965	     25.86560222	     46.90879116	      0.00000000	      0.00000000
      5.03000000	    -19.42396236	      7.30304279	      8.28186996	      0.37046916	      1.22382113	     -0.23251296	      0.00000000	      0.50000000	      0.00000000	      0.25000000	     21.98112861	    -15.75909617	    -15.20107254	     24.34786229	      0.42495036	    -17.74565708	      5.23192054	      0.00000000	      0.00000000	     74.86337587	     -3.63999804	     -3.54519684	    102.44882275	      1.78806927	     10.19792031	     15.62588211	      0.00000000	      0.00000000	    -57.40438056	     -5.30523969	     -3.89337838	     60.21493662	    -21.37786988	     30.00029073	     46.42923732	     45.36428714	      0.00000000	      0.00000000	     79.49102161	     -2.08010976	     69.39905943	     25.77155918	     46.86968683	      0.00000000	      0.00000000
      5.03500000	    -19.29943480	      7.47665214	      8.64322987	      0.36986434	      1.22686751	     -0.23186049	      0.00000000	      0.50000000	      0.00000000	      0.25000000	     22.10595163	    -16.11682040	    -15.12086990	     25.88824549	      0.45183512	    -17.88210654	      4.11147185	      0.00000000	      0.00000000	     74.58806258	     -2.91523095	     -3.63654643	    101.14523089	      1.76531730	     10.84747268	     15.51246256	      0.00000000	      0.00000000	    -57.66390394	     -5.59683208	     -4.21358864	     61.38868541	    -20.58915328	     30.43731341	     43.17168864	     44.90835029	      0.00000000	      0.00000000	     79.70689588	     -0.15544091	     68.28994958	     22.76525867	     46.08851342	      0.00000000	      0.00000000
      5.04000000	    -19.29951295	      7.23879780	      8.73836637	      0.36929472	      1.22934816	     -0.23160122	      0.00000000	      0.50000000	      0.00000000	      0.25000000	     22.59613093	    -16.00680920	    -14.69282751	     27.60924419	      0.48187222	    -17.95748970	      3.08009176	      0.00000000	      0.00000000	     74.49164436	     -2.58718551	     -3.41290062	     99.88203487	      1.74327037	     11.40473634	     15.49307167	      0.00000000	      0.00000000	    -57.70642494	     -5.59326902	     -4.02347780	     61.96644530	    -20.26114191	     30.80963856	     41.75614750	     44.76134832	      0.00000000	      0.00000000	     79.64420843	      0.62057302	     67.23855725	     22.22121380	     45.71361562	      0.00000000	      0.00000000
      5.04500000	    -19.30169060	      6.97767730	      8.74209742	      0.36874395	      1.23184621	     -0.23175370	      0.00000000	      0.50000000	      0.00000000	      0.25000000	     23.23170685	    -15.93193754	    -14.29486818	     29.50703888	      0.51499498	    -18.09520648	      2.19089400	      0.00000000	      0.00000000	     74.23774294	     -2.29622241	     -3.22207384	     98.49825242	      1.71911881	     12.10269455	     14.75188181	      0.00000000	      0.00000000	    -57.70132684	     -5.53357933	     -3.83897821	     62.82881659	    -19.67315346	     31.30740062	     39.74921139	     44.57290699	      0.00000000	      0.00000000	     79.30450803	      1.31997443	     65.02821977	     21.84890053	     45.03389894	      0.00000000	      0.00000000
      5.05000000	    -19.15426266	      6.79014141	      8.98440525	      0.36776836	      1.23490120	     -0.23139745	      0.00000000	      0.50000000	      0.00000000	      0.25000000	     23.75575468	    -15.96254249	    -14.02911985	     31.56559825	      0.55092362	    -18.19127832	      1.24833392	      0.00000000	      0.00000000	     73.62355564	     -1.78718823	     -2.99811096	     96.75739709	      1.68873515	     12.77014072	     14.60563903	      0.00000000	      0.00000000	    -58.04289696	     -5.39523887	     -3.61771797	     63.14437903	    -19.74218238	     31.23907512	     39.43284182	     44.51467351	      0.00000000	      0.00000000	     79.49799270	      1.60631133	     64.83513702	     22.03159638	     44.99962623	      0.00000000	      0.00000000
      5.05500000	    -19.37099242	      6.38714999	      8.82219501	      0.36690489	      1.23681824	     -0.23121678	      0.00000000	      0.50000000	      0.00000000	      0.25000000	     25.02212419	    -15.73195325	    -13.34070781	     33.94600459	      0.59246955	    -18.43831340	      0.39592742	      0.00000000	      0.00000000	     73.32236758	     -1.74764789	     -2.78414068	     95.01066136	      1.65824887	     13.35051132	     14.53805717	      0.00000000	      0.00000000	    -57.70919438	     -5.36329037	     -3.35728366	     64.23182449	    -18.52289683	     30.89353599	     36.55904029	     44.06697248	      0.00000000	      0.00000000	     78.90502825	      2.21279192	     61.90321871	     21.80223966	     44.13603737	      0.00000000	      0.00000000
      5.06000000	    -19.30902536	      6.00849281	      8.65407608	      0.36609901	      1.23899694	     -0.23100994	      0.00000000	      0.50000000	      0.00000000	      0.25000000	     26.06826865	    -15.55267606	    -12.83294805	     36.48717273	      0.63682130	    -18.51532280	     -0.24924235	      0.00000000	      0.00000000	     72.55969511	     -1.73400185	     -2.57980514	     93.11911354	      1.62523513	     14.12032121	     14.31284643	      0.00000000	      0.00000000	    -57.78662111	     -5.32588491	     -2.77481672	     64.49197907	    -18.61521914	     30.84585725	     36.16071512	     44.00650629	      0.00000000	      0.00000000	     78.81146498	      2.40651669	     61.45740910	     22.12974514	     44.05702623	      0.00000000	      0.00000000
      5.06500000	    -19.23254331	      5.48329981	      8.64600204	      0.36530343	      1.24119393	     -0.23071079	      0.00000000	      0.50000000	      0.00000000	      0.25000000	     27.06172537	    -15.24313535	    -12.44955352	     39.00228325	      0.68071826	    -18.51090565	     -0.98781168	      0.00000000	      0.00000000	     71.69378931	     -1.67194971	     -2.17731304	     91.01993347	      1.58859752	     14.68157582	     14.10190795	      0.00000000	      0.00000000	    -57.77632969	     -4.95056639	     -2.55586241	     65.47590907	    -17.42366831	     30.74153018	     34.19123614	     43.75493317	      0.00000000	      0.00000000	     78.11454368	      2.61802235	     57.42156836	     23.04710803	     43.09121728	      0.00000000	      0.00000000
      5.07000000	    -19.16975384	      5.03973444	      8.50028381	      0.36469106	      1.24317238	     -0.23042229	      0.00000000	      0.50000000	      0.00000000	      0.25000000	     28.19163511	    -15.00362215	    -11.95577728	     41.60582643	      0.72615866	    -18.69219540	     -1.55237278	      0.00000000	      0.00000000	     70.65836198	     -1.70559027	     -1.93377396	     88.79257058	      1.54972271	     15.46199907	     13.72529136	      0.00000000	      0.00000000	    -57.79275035	     -4.80705951	     -1.97705475	     65.56808216	    -17.58159050	     30.65721373	     33.99839074	     43.72095998	      0.00000000	      0.00000000	     77.99918265	      2.57225753	     57.08036638	     23.20621851	     43.01921170	      0.00000000	      0.00000000
